<?xml version="1.0" encoding="UTF-8"?>
<mxfile host="app.diagrams.net" agent="Mozilla/5.0 (Macintosh; Intel Mac OS X 10_15_7) AppleWebKit/537.36 (KHTML, like Gecko) Chrome/131.0.0.0 Safari/537.36" version="26.0.10">
  <diagram name="Page-1" id="1hPKoIEHKcbGvI_iwwUf">
    <mxGraphModel dx="1804" dy="1656" grid="1" gridSize="10" guides="1" tooltips="1" connect="1" arrows="1" fold="1" page="1" pageScale="1" pageWidth="850" pageHeight="1100" math="0" shadow="0">
      <root>
        <mxCell id="0" />
        <mxCell id="1" parent="0" />
        <mxCell id="p6DwhiF-Mg2G8dND3doh-1" value="Goal" style="rounded=0;whiteSpace=wrap;html=1;" parent="1" vertex="1">
          <mxGeometry x="300" y="100" width="120" height="60" as="geometry" />
        </mxCell>
        <mxCell id="p6DwhiF-Mg2G8dND3doh-2" value="Progress" style="rounded=0;whiteSpace=wrap;html=1;" parent="1" vertex="1">
          <mxGeometry x="300" y="270" width="120" height="60" as="geometry" />
        </mxCell>
        <mxCell id="p6DwhiF-Mg2G8dND3doh-3" value="Step" style="rounded=0;whiteSpace=wrap;html=1;" parent="1" vertex="1">
          <mxGeometry x="100" y="210" width="120" height="60" as="geometry" />
        </mxCell>
        <mxCell id="p6DwhiF-Mg2G8dND3doh-4" value="Category" style="rounded=0;whiteSpace=wrap;html=1;" parent="1" vertex="1">
          <mxGeometry x="500" y="200" width="120" height="60" as="geometry" />
        </mxCell>
        <mxCell id="p6DwhiF-Mg2G8dND3doh-5" value="&lt;u&gt;GoalID&lt;/u&gt;" style="ellipse;whiteSpace=wrap;html=1;" parent="1" vertex="1">
          <mxGeometry x="120" width="120" height="80" as="geometry" />
        </mxCell>
        <mxCell id="p6DwhiF-Mg2G8dND3doh-8" value="Description" style="ellipse;whiteSpace=wrap;html=1;" parent="1" vertex="1">
          <mxGeometry x="230" y="-80" width="120" height="80" as="geometry" />
        </mxCell>
        <mxCell id="p6DwhiF-Mg2G8dND3doh-10" value="" style="endArrow=none;html=1;rounded=0;entryX=1;entryY=1;entryDx=0;entryDy=0;exitX=0;exitY=0;exitDx=0;exitDy=0;" parent="1" source="UJToKRcdWho7xmVPFwm1-57" target="p6DwhiF-Mg2G8dND3doh-1" edge="1">
          <mxGeometry width="50" height="50" relative="1" as="geometry">
            <mxPoint x="400" y="310" as="sourcePoint" />
            <mxPoint x="450" y="260" as="targetPoint" />
          </mxGeometry>
        </mxCell>
        <mxCell id="p6DwhiF-Mg2G8dND3doh-11" value="StartDate" style="ellipse;whiteSpace=wrap;html=1;" parent="1" vertex="1">
          <mxGeometry x="360" y="-80" width="120" height="80" as="geometry" />
        </mxCell>
        <mxCell id="p6DwhiF-Mg2G8dND3doh-12" value="GoalTargetDate" style="ellipse;whiteSpace=wrap;html=1;" parent="1" vertex="1">
          <mxGeometry x="490" y="-80" width="120" height="80" as="geometry" />
        </mxCell>
        <mxCell id="p6DwhiF-Mg2G8dND3doh-13" value="" style="endArrow=none;html=1;rounded=0;entryX=1;entryY=1;entryDx=0;entryDy=0;exitX=0;exitY=0;exitDx=0;exitDy=0;" parent="1" source="p6DwhiF-Mg2G8dND3doh-1" target="p6DwhiF-Mg2G8dND3doh-5" edge="1">
          <mxGeometry width="50" height="50" relative="1" as="geometry">
            <mxPoint x="400" y="190" as="sourcePoint" />
            <mxPoint x="450" y="140" as="targetPoint" />
          </mxGeometry>
        </mxCell>
        <mxCell id="p6DwhiF-Mg2G8dND3doh-14" value="" style="endArrow=none;html=1;rounded=0;entryX=0.583;entryY=1;entryDx=0;entryDy=0;entryPerimeter=0;exitX=0.25;exitY=0;exitDx=0;exitDy=0;" parent="1" source="p6DwhiF-Mg2G8dND3doh-1" target="p6DwhiF-Mg2G8dND3doh-8" edge="1">
          <mxGeometry width="50" height="50" relative="1" as="geometry">
            <mxPoint x="400" y="190" as="sourcePoint" />
            <mxPoint x="450" y="140" as="targetPoint" />
          </mxGeometry>
        </mxCell>
        <mxCell id="p6DwhiF-Mg2G8dND3doh-17" value="1" style="text;html=1;align=center;verticalAlign=middle;resizable=0;points=[];autosize=1;strokeColor=none;fillColor=none;" parent="1" vertex="1">
          <mxGeometry x="480" y="195" width="30" height="30" as="geometry" />
        </mxCell>
        <mxCell id="p6DwhiF-Mg2G8dND3doh-18" value="N" style="text;html=1;align=center;verticalAlign=middle;resizable=0;points=[];autosize=1;strokeColor=none;fillColor=none;" parent="1" vertex="1">
          <mxGeometry x="410" y="140" width="30" height="30" as="geometry" />
        </mxCell>
        <mxCell id="p6DwhiF-Mg2G8dND3doh-19" value="PriorityLevel" style="ellipse;whiteSpace=wrap;html=1;" parent="1" vertex="1">
          <mxGeometry x="520" y="20" width="120" height="80" as="geometry" />
        </mxCell>
        <mxCell id="p6DwhiF-Mg2G8dND3doh-21" value="N" style="text;html=1;align=center;verticalAlign=middle;resizable=0;points=[];autosize=1;strokeColor=none;fillColor=none;" parent="1" vertex="1">
          <mxGeometry x="410" y="90" width="30" height="30" as="geometry" />
        </mxCell>
        <mxCell id="p6DwhiF-Mg2G8dND3doh-22" value="1" style="text;html=1;align=center;verticalAlign=middle;resizable=0;points=[];autosize=1;strokeColor=none;fillColor=none;" parent="1" vertex="1">
          <mxGeometry x="490" y="60" width="30" height="30" as="geometry" />
        </mxCell>
        <mxCell id="p6DwhiF-Mg2G8dND3doh-23" value="1" style="text;html=1;align=center;verticalAlign=middle;resizable=0;points=[];autosize=1;strokeColor=none;fillColor=none;" parent="1" vertex="1">
          <mxGeometry x="390" y="80" width="30" height="30" as="geometry" />
        </mxCell>
        <mxCell id="p6DwhiF-Mg2G8dND3doh-24" value="1" style="text;html=1;align=center;verticalAlign=middle;resizable=0;points=[];autosize=1;strokeColor=none;fillColor=none;" parent="1" vertex="1">
          <mxGeometry x="500" y="-10" width="30" height="30" as="geometry" />
        </mxCell>
        <mxCell id="p6DwhiF-Mg2G8dND3doh-25" value="1" style="text;html=1;align=center;verticalAlign=middle;resizable=0;points=[];autosize=1;strokeColor=none;fillColor=none;" parent="1" vertex="1">
          <mxGeometry x="300" y="-10" width="30" height="30" as="geometry" />
        </mxCell>
        <mxCell id="p6DwhiF-Mg2G8dND3doh-26" value="1" style="text;html=1;align=center;verticalAlign=middle;resizable=0;points=[];autosize=1;strokeColor=none;fillColor=none;" parent="1" vertex="1">
          <mxGeometry x="415" width="30" height="30" as="geometry" />
        </mxCell>
        <mxCell id="p6DwhiF-Mg2G8dND3doh-27" value="1" style="text;html=1;align=center;verticalAlign=middle;resizable=0;points=[];autosize=1;strokeColor=none;fillColor=none;" parent="1" vertex="1">
          <mxGeometry x="360" y="80" width="30" height="30" as="geometry" />
        </mxCell>
        <mxCell id="p6DwhiF-Mg2G8dND3doh-28" value="1" style="text;html=1;align=center;verticalAlign=middle;resizable=0;points=[];autosize=1;strokeColor=none;fillColor=none;" parent="1" vertex="1">
          <mxGeometry x="320" y="80" width="30" height="30" as="geometry" />
        </mxCell>
        <mxCell id="p6DwhiF-Mg2G8dND3doh-30" value="1" style="text;html=1;align=center;verticalAlign=middle;resizable=0;points=[];autosize=1;strokeColor=none;fillColor=none;" parent="1" vertex="1">
          <mxGeometry x="210" y="60" width="30" height="30" as="geometry" />
        </mxCell>
        <mxCell id="UJToKRcdWho7xmVPFwm1-2" value="" style="endArrow=none;dashed=1;html=1;rounded=0;entryX=0.467;entryY=0.133;entryDx=0;entryDy=0;entryPerimeter=0;" edge="1" parent="1" target="p6DwhiF-Mg2G8dND3doh-24">
          <mxGeometry width="50" height="50" relative="1" as="geometry">
            <mxPoint x="410" y="100" as="sourcePoint" />
            <mxPoint x="460" y="50" as="targetPoint" />
          </mxGeometry>
        </mxCell>
        <mxCell id="UJToKRcdWho7xmVPFwm1-3" value="" style="endArrow=none;dashed=1;html=1;rounded=0;exitX=1.033;exitY=0.733;exitDx=0;exitDy=0;exitPerimeter=0;" edge="1" parent="1" source="p6DwhiF-Mg2G8dND3doh-27">
          <mxGeometry width="50" height="50" relative="1" as="geometry">
            <mxPoint x="380" y="100" as="sourcePoint" />
            <mxPoint x="420" as="targetPoint" />
          </mxGeometry>
        </mxCell>
        <mxCell id="UJToKRcdWho7xmVPFwm1-4" value="" style="endArrow=none;dashed=1;html=1;rounded=0;entryX=0;entryY=0.5;entryDx=0;entryDy=0;" edge="1" parent="1" target="UJToKRcdWho7xmVPFwm1-51">
          <mxGeometry width="50" height="50" relative="1" as="geometry">
            <mxPoint x="420" y="100" as="sourcePoint" />
            <mxPoint x="470" y="50" as="targetPoint" />
          </mxGeometry>
        </mxCell>
        <mxCell id="UJToKRcdWho7xmVPFwm1-7" value="&lt;u&gt;CategoryID&lt;/u&gt;" style="ellipse;whiteSpace=wrap;html=1;" vertex="1" parent="1">
          <mxGeometry x="660" y="170" width="120" height="80" as="geometry" />
        </mxCell>
        <mxCell id="UJToKRcdWho7xmVPFwm1-8" value="CategoryName" style="ellipse;whiteSpace=wrap;html=1;" vertex="1" parent="1">
          <mxGeometry x="660" y="260" width="120" height="80" as="geometry" />
        </mxCell>
        <mxCell id="UJToKRcdWho7xmVPFwm1-9" value="" style="endArrow=none;html=1;rounded=0;entryX=0;entryY=0.5;entryDx=0;entryDy=0;exitX=1;exitY=0.25;exitDx=0;exitDy=0;" edge="1" parent="1" source="p6DwhiF-Mg2G8dND3doh-4" target="UJToKRcdWho7xmVPFwm1-7">
          <mxGeometry width="50" height="50" relative="1" as="geometry">
            <mxPoint x="400" y="190" as="sourcePoint" />
            <mxPoint x="450" y="140" as="targetPoint" />
          </mxGeometry>
        </mxCell>
        <mxCell id="UJToKRcdWho7xmVPFwm1-10" value="" style="endArrow=none;html=1;rounded=0;exitX=1;exitY=0.75;exitDx=0;exitDy=0;" edge="1" parent="1" source="p6DwhiF-Mg2G8dND3doh-4" target="UJToKRcdWho7xmVPFwm1-8">
          <mxGeometry width="50" height="50" relative="1" as="geometry">
            <mxPoint x="400" y="190" as="sourcePoint" />
            <mxPoint x="450" y="140" as="targetPoint" />
          </mxGeometry>
        </mxCell>
        <mxCell id="UJToKRcdWho7xmVPFwm1-11" value="1" style="text;html=1;align=center;verticalAlign=middle;whiteSpace=wrap;rounded=0;" vertex="1" parent="1">
          <mxGeometry x="630" y="190" width="50" height="20" as="geometry" />
        </mxCell>
        <mxCell id="UJToKRcdWho7xmVPFwm1-14" value="1" style="text;html=1;align=center;verticalAlign=middle;whiteSpace=wrap;rounded=0;" vertex="1" parent="1">
          <mxGeometry x="630" y="270" width="50" height="20" as="geometry" />
        </mxCell>
        <mxCell id="UJToKRcdWho7xmVPFwm1-15" value="1" style="text;html=1;align=center;verticalAlign=middle;whiteSpace=wrap;rounded=0;" vertex="1" parent="1">
          <mxGeometry x="260" y="90" width="60" height="30" as="geometry" />
        </mxCell>
        <mxCell id="UJToKRcdWho7xmVPFwm1-16" value="" style="endArrow=none;html=1;rounded=0;entryX=0;entryY=1;entryDx=0;entryDy=0;" edge="1" parent="1" source="UJToKRcdWho7xmVPFwm1-55" target="p6DwhiF-Mg2G8dND3doh-1">
          <mxGeometry width="50" height="50" relative="1" as="geometry">
            <mxPoint x="240" y="210" as="sourcePoint" />
            <mxPoint x="290" y="160" as="targetPoint" />
          </mxGeometry>
        </mxCell>
        <mxCell id="UJToKRcdWho7xmVPFwm1-19" value="1" style="text;html=1;align=center;verticalAlign=middle;whiteSpace=wrap;rounded=0;" vertex="1" parent="1">
          <mxGeometry x="280" y="160" width="60" height="30" as="geometry" />
        </mxCell>
        <mxCell id="UJToKRcdWho7xmVPFwm1-20" value="N" style="text;html=1;align=center;verticalAlign=middle;whiteSpace=wrap;rounded=0;" vertex="1" parent="1">
          <mxGeometry x="200" y="200" width="60" height="30" as="geometry" />
        </mxCell>
        <mxCell id="UJToKRcdWho7xmVPFwm1-21" value="&lt;u&gt;StepID&lt;/u&gt;" style="ellipse;whiteSpace=wrap;html=1;" vertex="1" parent="1">
          <mxGeometry x="-70" y="170" width="120" height="80" as="geometry" />
        </mxCell>
        <mxCell id="UJToKRcdWho7xmVPFwm1-22" value="StepName" style="ellipse;whiteSpace=wrap;html=1;" vertex="1" parent="1">
          <mxGeometry x="-70" y="260" width="120" height="80" as="geometry" />
        </mxCell>
        <mxCell id="UJToKRcdWho7xmVPFwm1-23" value="" style="endArrow=none;html=1;rounded=0;exitX=1;exitY=0.5;exitDx=0;exitDy=0;" edge="1" parent="1" source="UJToKRcdWho7xmVPFwm1-21">
          <mxGeometry width="50" height="50" relative="1" as="geometry">
            <mxPoint x="70" y="260" as="sourcePoint" />
            <mxPoint x="120" y="210" as="targetPoint" />
          </mxGeometry>
        </mxCell>
        <mxCell id="UJToKRcdWho7xmVPFwm1-24" value="" style="endArrow=none;html=1;rounded=0;exitX=1;exitY=0.5;exitDx=0;exitDy=0;" edge="1" parent="1" source="UJToKRcdWho7xmVPFwm1-22">
          <mxGeometry width="50" height="50" relative="1" as="geometry">
            <mxPoint x="70" y="320" as="sourcePoint" />
            <mxPoint x="120" y="270" as="targetPoint" />
          </mxGeometry>
        </mxCell>
        <mxCell id="UJToKRcdWho7xmVPFwm1-25" value="1" style="text;html=1;align=center;verticalAlign=middle;whiteSpace=wrap;rounded=0;" vertex="1" parent="1">
          <mxGeometry x="30" y="185" width="60" height="30" as="geometry" />
        </mxCell>
        <mxCell id="UJToKRcdWho7xmVPFwm1-26" value="1" style="text;html=1;align=center;verticalAlign=middle;whiteSpace=wrap;rounded=0;" vertex="1" parent="1">
          <mxGeometry x="70" y="185" width="60" height="30" as="geometry" />
        </mxCell>
        <mxCell id="UJToKRcdWho7xmVPFwm1-28" value="1" style="text;html=1;align=center;verticalAlign=middle;whiteSpace=wrap;rounded=0;" vertex="1" parent="1">
          <mxGeometry x="90" y="270" width="60" height="30" as="geometry" />
        </mxCell>
        <mxCell id="UJToKRcdWho7xmVPFwm1-30" value="1" style="text;html=1;align=center;verticalAlign=middle;whiteSpace=wrap;rounded=0;" vertex="1" parent="1">
          <mxGeometry x="30" y="290" width="60" height="30" as="geometry" />
        </mxCell>
        <mxCell id="UJToKRcdWho7xmVPFwm1-31" value="" style="endArrow=none;html=1;rounded=0;exitX=0.5;exitY=0;exitDx=0;exitDy=0;" edge="1" parent="1" source="UJToKRcdWho7xmVPFwm1-53">
          <mxGeometry width="50" height="50" relative="1" as="geometry">
            <mxPoint x="360" y="270" as="sourcePoint" />
            <mxPoint x="360" y="160" as="targetPoint" />
          </mxGeometry>
        </mxCell>
        <mxCell id="UJToKRcdWho7xmVPFwm1-32" value="1" style="text;html=1;align=center;verticalAlign=middle;whiteSpace=wrap;rounded=0;" vertex="1" parent="1">
          <mxGeometry x="340" y="155" width="60" height="30" as="geometry" />
        </mxCell>
        <mxCell id="UJToKRcdWho7xmVPFwm1-34" value="1" style="text;html=1;align=center;verticalAlign=middle;whiteSpace=wrap;rounded=0;" vertex="1" parent="1">
          <mxGeometry x="340" y="240" width="60" height="30" as="geometry" />
        </mxCell>
        <mxCell id="UJToKRcdWho7xmVPFwm1-35" value="&lt;u&gt;ProgressId&lt;/u&gt;" style="ellipse;whiteSpace=wrap;html=1;" vertex="1" parent="1">
          <mxGeometry x="140" y="360" width="120" height="80" as="geometry" />
        </mxCell>
        <mxCell id="UJToKRcdWho7xmVPFwm1-36" value="PercentageComplete" style="ellipse;whiteSpace=wrap;html=1;dashed=1;" vertex="1" parent="1">
          <mxGeometry x="400" y="360" width="120" height="80" as="geometry" />
        </mxCell>
        <mxCell id="UJToKRcdWho7xmVPFwm1-37" value="GoalID" style="ellipse;whiteSpace=wrap;html=1;" vertex="1" parent="1">
          <mxGeometry x="270" y="360" width="120" height="80" as="geometry" />
        </mxCell>
        <mxCell id="UJToKRcdWho7xmVPFwm1-38" value="lastStepCompleted" style="ellipse;whiteSpace=wrap;html=1;" vertex="1" parent="1">
          <mxGeometry x="530" y="360" width="120" height="80" as="geometry" />
        </mxCell>
        <mxCell id="UJToKRcdWho7xmVPFwm1-39" value="" style="endArrow=none;html=1;rounded=0;entryX=0;entryY=1;entryDx=0;entryDy=0;" edge="1" parent="1" target="p6DwhiF-Mg2G8dND3doh-2">
          <mxGeometry width="50" height="50" relative="1" as="geometry">
            <mxPoint x="210" y="360" as="sourcePoint" />
            <mxPoint x="290" y="330" as="targetPoint" />
          </mxGeometry>
        </mxCell>
        <mxCell id="UJToKRcdWho7xmVPFwm1-40" value="1" style="text;html=1;align=center;verticalAlign=middle;whiteSpace=wrap;rounded=0;" vertex="1" parent="1">
          <mxGeometry x="180" y="330" width="60" height="30" as="geometry" />
        </mxCell>
        <mxCell id="UJToKRcdWho7xmVPFwm1-41" value="1" style="text;html=1;align=center;verticalAlign=middle;whiteSpace=wrap;rounded=0;" vertex="1" parent="1">
          <mxGeometry x="260" y="310" width="60" height="30" as="geometry" />
        </mxCell>
        <mxCell id="UJToKRcdWho7xmVPFwm1-42" value="" style="endArrow=none;html=1;rounded=0;exitX=0.5;exitY=0;exitDx=0;exitDy=0;entryX=0.25;entryY=1;entryDx=0;entryDy=0;" edge="1" parent="1" source="UJToKRcdWho7xmVPFwm1-37" target="p6DwhiF-Mg2G8dND3doh-2">
          <mxGeometry width="50" height="50" relative="1" as="geometry">
            <mxPoint x="270" y="380" as="sourcePoint" />
            <mxPoint x="320" y="330" as="targetPoint" />
          </mxGeometry>
        </mxCell>
        <mxCell id="UJToKRcdWho7xmVPFwm1-43" value="" style="endArrow=none;html=1;rounded=0;entryX=0;entryY=0;entryDx=0;entryDy=0;exitX=0.75;exitY=1;exitDx=0;exitDy=0;" edge="1" parent="1" source="p6DwhiF-Mg2G8dND3doh-2" target="UJToKRcdWho7xmVPFwm1-36">
          <mxGeometry width="50" height="50" relative="1" as="geometry">
            <mxPoint x="400" y="280" as="sourcePoint" />
            <mxPoint x="450" y="230" as="targetPoint" />
          </mxGeometry>
        </mxCell>
        <mxCell id="UJToKRcdWho7xmVPFwm1-44" value="" style="endArrow=none;html=1;rounded=0;exitX=1;exitY=1;exitDx=0;exitDy=0;entryX=0;entryY=0;entryDx=0;entryDy=0;" edge="1" parent="1" source="p6DwhiF-Mg2G8dND3doh-2" target="UJToKRcdWho7xmVPFwm1-38">
          <mxGeometry width="50" height="50" relative="1" as="geometry">
            <mxPoint x="400" y="280" as="sourcePoint" />
            <mxPoint x="450" y="230" as="targetPoint" />
          </mxGeometry>
        </mxCell>
        <mxCell id="UJToKRcdWho7xmVPFwm1-45" value="1" style="text;html=1;align=center;verticalAlign=middle;whiteSpace=wrap;rounded=0;" vertex="1" parent="1">
          <mxGeometry x="400" y="310" width="60" height="30" as="geometry" />
        </mxCell>
        <mxCell id="UJToKRcdWho7xmVPFwm1-46" value="1" style="text;html=1;align=center;verticalAlign=middle;whiteSpace=wrap;rounded=0;" vertex="1" parent="1">
          <mxGeometry x="510" y="350" width="60" height="30" as="geometry" />
        </mxCell>
        <mxCell id="UJToKRcdWho7xmVPFwm1-47" value="1" style="text;html=1;align=center;verticalAlign=middle;whiteSpace=wrap;rounded=0;" vertex="1" parent="1">
          <mxGeometry x="310" y="320" width="60" height="30" as="geometry" />
        </mxCell>
        <mxCell id="UJToKRcdWho7xmVPFwm1-48" value="1" style="text;html=1;align=center;verticalAlign=middle;whiteSpace=wrap;rounded=0;" vertex="1" parent="1">
          <mxGeometry x="305" y="340" width="60" height="30" as="geometry" />
        </mxCell>
        <mxCell id="UJToKRcdWho7xmVPFwm1-49" value="1" style="text;html=1;align=center;verticalAlign=middle;whiteSpace=wrap;rounded=0;" vertex="1" parent="1">
          <mxGeometry x="375" y="320" width="60" height="30" as="geometry" />
        </mxCell>
        <mxCell id="UJToKRcdWho7xmVPFwm1-50" value="1" style="text;html=1;align=center;verticalAlign=middle;whiteSpace=wrap;rounded=0;" vertex="1" parent="1">
          <mxGeometry x="390" y="350" width="60" height="30" as="geometry" />
        </mxCell>
        <mxCell id="UJToKRcdWho7xmVPFwm1-51" value="" style="ellipse;whiteSpace=wrap;html=1;fillColor=none;" vertex="1" parent="1">
          <mxGeometry x="510" y="15" width="140" height="90" as="geometry" />
        </mxCell>
        <mxCell id="UJToKRcdWho7xmVPFwm1-54" value="" style="endArrow=none;html=1;rounded=0;exitX=0.5;exitY=0;exitDx=0;exitDy=0;" edge="1" parent="1" source="p6DwhiF-Mg2G8dND3doh-2" target="UJToKRcdWho7xmVPFwm1-53">
          <mxGeometry width="50" height="50" relative="1" as="geometry">
            <mxPoint x="360" y="270" as="sourcePoint" />
            <mxPoint x="360" y="160" as="targetPoint" />
          </mxGeometry>
        </mxCell>
        <mxCell id="UJToKRcdWho7xmVPFwm1-53" value="Tracks" style="rhombus;whiteSpace=wrap;html=1;" vertex="1" parent="1">
          <mxGeometry x="320" y="185" width="80" height="55" as="geometry" />
        </mxCell>
        <mxCell id="UJToKRcdWho7xmVPFwm1-56" value="" style="endArrow=none;html=1;rounded=0;entryX=0;entryY=1;entryDx=0;entryDy=0;exitX=1;exitY=0;exitDx=0;exitDy=0;" edge="1" parent="1" source="p6DwhiF-Mg2G8dND3doh-3" target="UJToKRcdWho7xmVPFwm1-55">
          <mxGeometry width="50" height="50" relative="1" as="geometry">
            <mxPoint x="240" y="210" as="sourcePoint" />
            <mxPoint x="300" y="160" as="targetPoint" />
          </mxGeometry>
        </mxCell>
        <mxCell id="UJToKRcdWho7xmVPFwm1-55" value="Includes" style="rhombus;whiteSpace=wrap;html=1;" vertex="1" parent="1">
          <mxGeometry x="220" y="160" width="80" height="50" as="geometry" />
        </mxCell>
        <mxCell id="UJToKRcdWho7xmVPFwm1-58" value="" style="endArrow=none;html=1;rounded=0;entryX=1;entryY=1;entryDx=0;entryDy=0;exitX=0;exitY=0;exitDx=0;exitDy=0;" edge="1" parent="1" source="p6DwhiF-Mg2G8dND3doh-4" target="UJToKRcdWho7xmVPFwm1-57">
          <mxGeometry width="50" height="50" relative="1" as="geometry">
            <mxPoint x="480" y="210" as="sourcePoint" />
            <mxPoint x="420" y="160" as="targetPoint" />
          </mxGeometry>
        </mxCell>
        <mxCell id="UJToKRcdWho7xmVPFwm1-57" value="Belongs to" style="rhombus;whiteSpace=wrap;html=1;" vertex="1" parent="1">
          <mxGeometry x="420" y="155" width="80" height="50" as="geometry" />
        </mxCell>
        <mxCell id="UJToKRcdWho7xmVPFwm1-60" value="1" style="text;html=1;align=center;verticalAlign=middle;whiteSpace=wrap;rounded=0;" vertex="1" parent="1">
          <mxGeometry x="600" y="190" width="60" height="30" as="geometry" />
        </mxCell>
        <mxCell id="UJToKRcdWho7xmVPFwm1-61" value="1" style="text;html=1;align=center;verticalAlign=middle;whiteSpace=wrap;rounded=0;" vertex="1" parent="1">
          <mxGeometry x="600" y="250" width="60" height="30" as="geometry" />
        </mxCell>
      </root>
    </mxGraphModel>
  </diagram>
</mxfile>
